<?xml version="1.0" encoding="UTF-8"?>
<svg version="1.1" xmlns="http://www.w3.org/2000/svg" width="1024" height="1024">
<path d="M0 0 C337.92 0 675.84 0 1024 0 C1024 337.92 1024 675.84 1024 1024 C686.08 1024 348.16 1024 0 1024 C0 686.08 0 348.16 0 0 Z " fill="#F6F0E3" transform="translate(0,0)"/>
<path d="M0 0 C3.17283525 1.52023795 6.35071642 3.02979142 9.52838135 4.53990173 C11.14132994 5.30644221 12.75404257 6.0734794 14.36651611 6.84101868 C21.34453609 10.16064486 28.34799445 13.42260086 35.36248779 16.66452026 C42.63739428 20.03029432 49.90561692 23.40916761 57.15545654 26.82858276 C58.17824455 27.31098419 58.17824455 27.31098419 59.22169495 27.8031311 C62.03543047 29.1306194 64.84900042 30.45845709 67.66220093 31.78707886 C76.29204955 35.86119989 84.93861644 39.89583221 93.61248779 43.87545776 C94.48382858 44.27563614 95.35516937 44.67581451 96.25291443 45.08811951 C100.48454757 47.03096889 104.71821054 48.96915795 108.95550537 50.89962769 C134.82909996 62.72699916 134.82909996 62.72699916 139.23748779 69.10202026 C139.92498779 71.53952026 139.92498779 71.53952026 139.23748779 74.10202026 C135.02313296 78.63735565 130.09308036 81.48985893 124.49139404 83.96139526 C123.39305992 84.46204498 123.39305992 84.46204498 122.27253723 84.97280884 C119.93423668 86.03175876 117.58789756 87.07024816 115.23748779 88.10202026 C114.08709015 88.60753418 114.08709015 88.60753418 112.91345215 89.1232605 C108.17246232 91.19833964 103.4189381 93.24364152 98.66268921 95.28344727 C86.023486 100.71251973 73.53527804 106.27081936 61.30584717 112.58029175 C51.82870622 117.42119832 42.10333993 121.65833547 32.36047363 125.92907715 C19.88857231 131.40148907 7.59110054 137.1630562 -4.6026001 143.23019409 C-18.93771569 150.30707294 -28.75591718 154.67681067 -44.33908081 149.43513489 C-52.2595356 146.68767924 -59.88350874 143.25811256 -67.52896118 139.83309937 C-72.04210031 137.81130259 -76.5647861 135.81105678 -81.08673096 133.80905151 C-81.99415543 133.40669281 -82.9015799 133.00433411 -83.83650208 132.58978271 C-91.49875537 129.1997286 -99.20795061 125.93036139 -106.93655396 122.69512939 C-124.44361789 115.36427689 -141.79441322 107.61623947 -158.76251221 99.10202026 C-158.77083604 106.93490831 -158.74682875 114.76698362 -158.68223381 122.59957218 C-158.65323568 126.23719857 -158.63512321 129.87418333 -158.64239502 133.51193237 C-158.64901206 137.02672297 -158.62637264 140.54024837 -158.58395767 144.05477715 C-158.56749324 146.03929629 -158.58085502 148.02399092 -158.59475708 150.00852966 C-158.54751905 157.80170179 -158.54751905 157.80170179 -154.77471924 164.35372925 C-153.77901755 165.27891379 -152.77652492 166.19694209 -151.76251221 167.10202026 C-150.03736484 170.552315 -150.3928017 174.32204903 -150.76251221 178.10202026 C-151.93853846 180.93517443 -153.23227644 183.31163964 -154.93389893 185.84811401 C-156.14438277 189.14074421 -155.38728641 191.44767168 -154.64532471 194.85202026 C-154.50931854 195.50597778 -154.37331238 196.1599353 -154.23318481 196.83370972 C-153.79737615 198.92608883 -153.34445729 201.01416242 -152.88751221 203.10202026 C-148.85009561 221.60430021 -148.85009561 221.60430021 -149.76251221 231.10202026 C-151.61965277 232.95916083 -154.6875827 232.23250707 -157.16876221 232.23483276 C-158.46942627 232.23612183 -159.77009033 232.23741089 -161.11016846 232.23873901 C-161.79095459 232.23664429 -162.47174072 232.23454956 -163.17315674 232.23239136 C-165.25379736 232.22704267 -167.3342221 232.23233706 -169.41485596 232.23873901 C-171.36585205 232.23680542 -171.36585205 232.23680542 -173.35626221 232.23483276 C-174.55960205 232.23370483 -175.76294189 232.2325769 -177.00274658 232.23141479 C-179.76251221 232.10202026 -179.76251221 232.10202026 -180.76251221 231.10202026 C-181.75254517 220.79635951 -179.35942309 210.96971656 -177.17510986 200.98922729 C-176.73222002 198.94566803 -176.30546087 196.89920476 -175.87969971 194.85202026 C-175.61785889 193.65061401 -175.35601807 192.44920776 -175.08624268 191.21139526 C-174.74312902 187.91584815 -174.95305868 186.79319583 -176.76251221 184.10202026 C-180.02659154 178.82927673 -180.66877873 174.17006565 -179.76251221 168.10202026 C-177.76594093 164.24657229 -176.36543583 162.50396935 -172.76251221 160.10202026 C-172.28312257 157.15304953 -172.28312257 157.15304953 -172.33013916 153.63278198 C-172.31994751 152.96924713 -172.30975586 152.30571228 -172.29925537 151.62207031 C-172.26902071 149.42519809 -172.25984403 147.22876108 -172.25079346 145.03170776 C-172.23395442 143.50997456 -172.21580524 141.98825533 -172.19639587 140.46655273 C-172.14880501 136.45857103 -172.11905478 132.45064597 -172.09295654 128.44247437 C-172.06319657 124.35361541 -172.01665071 120.26495182 -171.97149658 116.17623901 C-171.88536026 108.15159521 -171.8180613 100.1269338 -171.76251221 92.10202026 C-172.35836121 91.90752792 -172.95421021 91.71303558 -173.56811523 91.51264954 C-179.19354609 89.66024726 -184.60188329 87.5717916 -190.01251221 85.16452026 C-190.78852783 84.83000854 -191.56454346 84.49549683 -192.36407471 84.15084839 C-196.63210839 82.26082323 -200.36988167 80.39621858 -203.76251221 77.10202026 C-204.82501221 73.66452026 -204.82501221 73.66452026 -204.76251221 70.10202026 C-201.9309264 65.59420993 -198.42055136 63.54760586 -193.71563721 61.36373901 C-192.66729706 60.85879158 -192.66729706 60.85879158 -191.59777832 60.34364319 C-190.09748984 59.62307375 -188.5944401 58.90823022 -187.08892822 58.19863892 C-184.77328057 57.10709622 -182.46539471 56.00055538 -180.15899658 54.88961792 C-175.28533522 52.54656455 -170.39963666 50.22932941 -165.51251221 47.91452026 C-163.73198135 47.06949617 -161.95146396 46.22444368 -160.17095947 45.37936401 C-150.37165847 40.73281689 -140.55107462 36.13785699 -130.70001221 31.60202026 C-119.60107233 26.48743072 -108.61393252 21.16069024 -97.63751221 15.78952026 C-85.43544916 9.81974683 -73.21703083 3.889675 -60.9317627 -1.90734863 C-59.45900072 -2.60232392 -57.98677966 -3.2984468 -56.51513672 -3.99578857 C-54.48343467 -4.95778401 -52.44956539 -5.9150209 -50.41485596 -6.87063599 C-49.27008789 -7.40954468 -48.12531982 -7.94845337 -46.94586182 -8.50369263 C-29.62565212 -16.08983555 -15.75289282 -7.54830577 0 0 Z " fill="#2C5742" transform="translate(326.76251220703125,279.8979797363281)"/>
<path d="M0 0 C0.67501053 -0.0049649 1.35002106 -0.00992981 2.04548645 -0.01504517 C4.28318292 -0.02967416 6.52080845 -0.03647056 8.75854492 -0.04199219 C10.31312563 -0.04774377 11.86770632 -0.0535015 13.42228699 -0.05926514 C16.68484834 -0.06977772 19.94738503 -0.07561845 23.20996094 -0.07910156 C27.38641071 -0.0845818 31.56253372 -0.10859842 35.73888111 -0.13707352 C38.95168502 -0.15571839 42.16441059 -0.16090651 45.37726402 -0.16243744 C46.91662059 -0.16546118 48.45597587 -0.17348034 49.99527931 -0.18662262 C52.15205166 -0.20371968 54.30803072 -0.20179426 56.46484375 -0.1953125 C57.69125076 -0.19895813 58.91765778 -0.20260376 60.18122864 -0.20635986 C64.98085202 0.33714446 67.33967491 2.07469407 70.70666504 5.44044495 C72.81395057 8.7740326 72.93316563 10.76686191 72.9440918 14.69213867 C72.95670044 15.9937645 72.96930908 17.29539032 72.9822998 18.63645935 C72.97513902 20.04963728 72.96693478 21.46281025 72.95776367 22.87597656 C72.96046051 24.33419554 72.96434452 25.79241276 72.96936035 27.25062561 C72.9752484 30.30291916 72.96671681 33.35474355 72.94799805 36.40698242 C72.92522832 40.30883945 72.93832211 44.20959463 72.9622879 48.11141109 C72.97678249 51.12187411 72.97212299 54.13207846 72.96177673 57.14254951 C72.95911846 58.58058364 72.96234746 60.01864167 72.97169495 61.45664787 C72.98191664 63.4713378 72.96355997 65.48611062 72.9440918 67.50073242 C72.94090942 68.64481064 72.93772705 69.78888885 72.93444824 70.96763611 C72.16343484 75.81516748 69.89444448 79.00151779 66.07617188 82.01782227 C62.87109883 83.40079076 60.51728322 83.5036556 57.03198242 83.45410156 C55.82993164 83.44443359 54.62788086 83.43476562 53.3894043 83.42480469 C51.52058594 83.38709961 51.52058594 83.38709961 49.61401367 83.34863281 C47.71619141 83.32833008 47.71619141 83.32833008 45.7800293 83.30761719 C42.66200823 83.27231884 39.54420654 83.21851366 36.42651367 83.16113281 C36.42651367 91.74113281 36.42651367 100.32113281 36.42651367 109.16113281 C39.61174683 109.12971191 39.61174683 109.12971191 42.86132812 109.09765625 C49.91396404 109.03107905 56.96661462 108.98707555 64.01948261 108.95388412 C68.29147923 108.93309824 72.56315114 108.90494754 76.83496094 108.859375 C80.96525913 108.81559292 85.09524698 108.79192821 89.22575951 108.78162384 C90.79368149 108.77429003 92.36158843 108.75997034 93.9293766 108.73821259 C105.07637231 108.58980831 115.70121647 109.43346815 124.86401367 116.54785156 C132.2659344 124.19033471 134.74790783 133.18851121 134.62182617 143.49707031 C134.61899628 144.37642242 134.61616638 145.25577454 134.61325073 146.16177368 C134.60211079 148.95336875 134.57701778 151.74463572 134.55151367 154.53613281 C134.54147587 156.43586774 134.53235142 158.33560773 134.52416992 160.23535156 C134.50219173 164.87740388 134.46770477 169.51921283 134.42651367 174.16113281 C135.84577148 174.61359375 135.84577148 174.61359375 137.29370117 175.07519531 C144.98992153 177.74296247 149.35567636 184.00859415 153.29760742 190.82910156 C156.42465998 197.28879145 156.42048828 204.98164921 154.77807617 211.88769531 C151.75715479 220.22750392 146.2665507 226.91444609 138.42651367 231.16113281 C131.32850042 234.05828108 123.01890947 234.4898316 115.64526367 232.35644531 C107.23096239 228.59078579 101.37063504 222.23759716 97.92651367 213.72363281 C95.26039128 205.22758944 95.53897514 197.22741126 99.42651367 189.16113281 C103.23847416 182.93155726 108.41930474 176.81903965 115.42651367 174.16113281 C116.41651367 174.16113281 117.40651367 174.16113281 118.42651367 174.16113281 C118.35745838 168.858755 118.26940546 163.55715236 118.1640625 158.25537109 C118.13089594 156.45337553 118.10283842 154.65127814 118.08007812 152.84912109 C118.04637935 150.25216458 117.99405718 147.65613416 117.93823242 145.05957031 C117.92864754 143.85921646 117.92864754 143.85921646 117.91886902 142.63461304 C117.79286552 137.79455309 117.21789552 134.28639177 114.42651367 130.16113281 C110.34868188 127.06551731 107.21274468 126.77241287 102.15771484 126.72875977 C101.44497406 126.71856812 100.73223328 126.70837646 99.99789429 126.69787598 C97.65500966 126.66781494 95.31253434 126.65849094 92.96948242 126.64941406 C91.33993681 126.6325622 89.71040417 126.61441127 88.08088684 126.59501648 C83.80168711 126.54756518 79.52253993 126.51772445 75.24316406 126.49157715 C70.10346777 126.45649797 64.96397326 126.39949911 59.82444 126.34618378 C52.02515696 126.26772688 44.22613701 126.21707866 36.42651367 126.16113281 C36.75651367 141.67113281 37.08651367 157.18113281 37.42651367 173.16113281 C40.72651367 174.81113281 44.02651367 176.46113281 47.42651367 178.16113281 C54.5662493 185.07055439 58.48361365 191.39960472 58.89648438 201.40258789 C58.99383628 208.72455886 58.52582576 214.8688321 54.42651367 221.16113281 C53.89026367 222.04800781 53.35401367 222.93488281 52.80151367 223.84863281 C45.46904902 230.98813787 37.67690317 233.51596939 27.68823242 233.54174805 C18.8169177 233.34330025 13.10554059 230.24167542 6.98901367 223.84863281 C0.37122097 215.66663456 -0.7473021 207.4988774 0.12915039 197.14013672 C1.37036788 188.8796203 6.20854458 182.52922665 12.59448242 177.46582031 C17.23489691 174.16113281 17.23489691 174.16113281 20.42651367 174.16113281 C20.42651367 158.32113281 20.42651367 142.48113281 20.42651367 126.16113281 C7.59812615 126.19376032 7.59812615 126.19376032 -5.22973633 126.27246094 C-10.46384072 126.31479317 -15.69759403 126.35179405 -20.93188477 126.35668945 C-25.15324602 126.36097629 -29.37382073 126.38947001 -33.59493637 126.43456459 C-35.2031788 126.44752745 -36.81151542 126.45185153 -38.41980362 126.44728661 C-40.67778081 126.44237148 -42.93346707 126.46850735 -45.19116211 126.50170898 C-46.4746756 126.50837082 -47.75818909 126.51503265 -49.08059692 126.52189636 C-53.66615938 127.36110377 -55.29442632 128.90390551 -58.57348633 132.16113281 C-60.2637477 135.54165555 -59.81793592 139.38373423 -59.88989258 143.10644531 C-59.91067368 143.99145721 -59.93145477 144.87646912 -59.9528656 145.78829956 C-60.01835231 148.62083022 -60.07724195 151.45345506 -60.13598633 154.28613281 C-60.17917239 156.20411138 -60.2227867 158.12208035 -60.2668457 160.04003906 C-60.3740328 164.74697332 -60.47530272 169.45400248 -60.57348633 174.16113281 C-59.80649414 174.29519531 -59.03950195 174.42925781 -58.24926758 174.56738281 C-50.38975815 176.31139074 -44.62177613 183.49248963 -40.39770508 189.96191406 C-37.03220193 197.15547767 -37.17858793 207.79377235 -39.55786133 215.24316406 C-40.74829139 217.69383335 -42.04310795 219.91005298 -43.57348633 222.16113281 C-44.43973633 223.55332031 -44.43973633 223.55332031 -45.32348633 224.97363281 C-51.39335337 230.87489244 -59.43572653 234.17195837 -67.82348633 234.53613281 C-76.04322907 234.35744275 -83.03585049 231.48425529 -89.04223633 225.86035156 C-96.06788849 218.06402837 -98.08421918 209.81092969 -97.88208008 199.44238281 C-97.06196824 190.7222063 -93.00630774 183.98961818 -86.57348633 178.16113281 C-83.33494509 175.80703918 -80.68549442 174.16113281 -76.57348633 174.16113281 C-76.59443359 173.00701904 -76.61538086 171.85290527 -76.63696289 170.66381836 C-76.7099966 166.33452018 -76.75551382 162.00527512 -76.79321289 157.67553711 C-76.81318528 155.81053475 -76.84037301 153.94559384 -76.87524414 152.08081055 C-77.11481956 138.92882442 -77.26486179 127.02547231 -67.64379883 116.88378906 C-61.10708098 111.44474648 -53.91329747 109.03318133 -45.53173828 109.04760742 C-44.46306519 109.04738838 -44.46306519 109.04738838 -43.37280273 109.04716492 C-41.01909332 109.0478613 -38.66546316 109.05564089 -36.31176758 109.06347656 C-34.67937768 109.06534171 -33.04698722 109.06676516 -31.41459656 109.06776428 C-27.11887058 109.0715818 -22.82317843 109.08140557 -18.52746582 109.09246826 C-14.1437221 109.10269882 -9.75997292 109.10726543 -5.3762207 109.11230469 C3.22470801 109.12302851 11.82560273 109.14061914 20.42651367 109.16113281 C20.42651367 100.58113281 20.42651367 92.00113281 20.42651367 83.16113281 C18.54706055 83.21914063 16.66760742 83.27714844 14.73120117 83.33691406 C12.25466353 83.38381818 9.778099 83.42931764 7.30151367 83.47363281 C6.06401367 83.51552734 4.82651367 83.55742188 3.55151367 83.60058594 C-6.72992693 83.73877734 -6.72992693 83.73877734 -10.31567383 80.95410156 C-14.04525889 76.3405145 -14.82427449 72.61312446 -14.89575195 66.73779297 C-14.91496704 65.45941559 -14.93418213 64.18103821 -14.95397949 62.86392212 C-14.96367589 61.4760205 -14.97223345 60.08811052 -14.97973633 58.70019531 C-14.98821846 57.64450411 -14.98821846 57.64450411 -14.99687195 56.56748581 C-15.02677964 52.84412907 -15.04528713 49.12092583 -15.05395508 45.39746094 C-15.06492393 41.56496311 -15.1129938 37.73388673 -15.16989899 33.90183449 C-15.20727045 30.94198582 -15.21756894 27.98247595 -15.22062683 25.02241135 C-15.22665298 23.61024567 -15.24261959 22.19808405 -15.26899719 20.78615189 C-15.48403613 8.39274556 -15.48403613 8.39274556 -11.6574707 3.80322266 C-7.8585406 0.16660468 -5.23445416 0.02919957 0 0 Z " fill="#2A5540" transform="translate(266.573486328125,505.8388671875)"/>
<path d="M0 0 C0.18558524 7.60578619 0.32761753 15.21133704 0.41449738 22.81887341 C0.45620407 26.35182495 0.51273508 29.88322486 0.60351562 33.4152832 C0.70729934 37.4788271 0.7459247 41.54074907 0.78125 45.60546875 C0.82254028 46.8702153 0.86383057 48.13496185 0.90637207 49.43803406 C0.91074384 57.98152912 0.91074384 57.98152912 -1.67094421 60.86859131 C-3.73796963 62.19939954 -5.70242185 63.13665272 -8 64 C-8.8247583 64.39300293 -9.6495166 64.78600586 -10.49926758 65.19091797 C-11.20720459 65.45533691 -11.9151416 65.71975586 -12.64453125 65.9921875 C-13.47210938 66.3013208 -14.2996875 66.6104541 -15.15234375 66.92895508 C-16.03019531 67.2411499 -16.90804687 67.55334473 -17.8125 67.875 C-18.75609375 68.21233154 -19.6996875 68.54966309 -20.671875 68.8972168 C-39.65424448 75.49568837 -58.99805743 80.04360003 -79 82 C-79.89614014 82.0920874 -80.79228027 82.1841748 -81.71557617 82.27905273 C-120.82641281 85.96151286 -162.24825433 82.18224615 -198 65 C-199.28300743 64.402444 -199.28300743 64.402444 -200.5919342 63.79281616 C-203 62 -203 62 -203.60127258 59.43733215 C-203.59016953 58.41363022 -203.57906647 57.38992828 -203.56762695 56.33520508 C-203.5672493 55.17422806 -203.56687164 54.01325104 -203.56648254 52.8170929 C-203.54067612 51.56389755 -203.51486969 50.31070221 -203.48828125 49.01953125 C-203.48120651 47.73640549 -203.47413177 46.45327972 -203.46684265 45.13127136 C-203.44776759 41.72282078 -203.39866571 38.3154386 -203.34332275 34.90740967 C-203.29213925 31.42865452 -203.26933074 27.94972641 -203.24414062 24.47070312 C-203.19054505 17.646697 -203.10522794 10.82339981 -203 4 C-199.09744142 4.61227104 -195.73148931 5.3469816 -192.09765625 6.90625 C-191.14463623 7.31182129 -190.19161621 7.71739258 -189.2097168 8.13525391 C-188.17113525 8.58562012 -187.13255371 9.03598633 -186.0625 9.5 C-184.95366455 9.9748584 -183.8448291 10.4497168 -182.70239258 10.93896484 C-178.79728033 12.61616218 -174.89778974 14.30587489 -171 16 C-170.24078247 16.32987915 -169.48156494 16.6597583 -168.69934082 16.99963379 C-163.71324411 19.16682754 -158.72898212 21.33820663 -153.74533081 23.51101685 C-151.19126324 24.62336104 -148.63593177 25.73275632 -146.08032227 26.84155273 C-139.14106073 29.85611432 -132.2111646 32.87132774 -125.36328125 36.08984375 C-115.05223204 40.88938096 -105.36275936 45.0705478 -93.8671875 41.30053711 C-86.84113281 38.61312888 -80.11698471 35.23108511 -73.37097168 31.91714478 C-69.93180202 30.22916262 -66.4857057 28.55547033 -63.0390625 26.8828125 C-62.35005859 26.54842667 -61.66105469 26.21404083 -60.95117188 25.86952209 C-52.0726565 21.57017973 -43.11138424 17.4572555 -34.1171875 13.40625 C-31.25665086 12.11578234 -28.40019619 10.81660451 -25.5446167 9.51521301 C-23.05577498 8.3831114 -20.56378373 7.25807716 -18.07092285 6.13485718 C-16.28840405 5.32984387 -14.50891031 4.51814292 -12.72949219 3.70629883 C-11.64829102 3.22185303 -10.56708984 2.73740723 -9.453125 2.23828125 C-8.49567383 1.80555908 -7.53822266 1.37283691 -6.55175781 0.92700195 C-4 0 -4 0 0 0 Z " fill="#2C5742" transform="translate(399,402)"/>
<path d="M0 0 C7.26 0 14.52 0 22 0 C26.22216602 8.08731064 29.66980809 16.39335154 33 24.875 C33.76702882 26.81784803 34.53535722 28.76017497 35.30444336 30.70220947 C35.80635649 31.97012609 36.30718592 33.23847227 36.80688477 34.50726318 C38.81339313 39.58526 40.93954317 44.60707074 43.1171875 49.61376953 C44 52 44 52 44 55 C44.66 55 45.32 55 46 55 C46.19101036 53.9120665 46.19101036 53.9120665 46.38587952 52.80215454 C46.97907269 50.09548869 47.78913946 47.73104441 48.82592773 45.16552734 C49.19979111 44.23461273 49.57365448 43.30369812 49.95884705 42.34457397 C50.36301346 41.35172394 50.76717987 40.3588739 51.18359375 39.3359375 C51.59916031 38.30691315 52.01472687 37.27788879 52.44288635 36.21768188 C53.32088568 34.04660543 54.20105851 31.87640686 55.08325195 29.70703125 C56.43442888 26.38255628 57.777274 23.05480468 59.11914062 19.7265625 C59.97346353 17.61698705 60.82826497 15.50760532 61.68359375 13.3984375 C62.28680702 11.90308975 62.28680702 11.90308975 62.90220642 10.37753296 C63.27922195 9.45292267 63.65623749 8.52831238 64.04467773 7.57568359 C64.53979103 6.35587296 64.53979103 6.35587296 65.04490662 5.11141968 C66 3 66 3 68 0 C74.93 0 81.86 0 89 0 C89 27.72 89 55.44 89 84 C83.39 84 77.78 84 72 84 C72 65.19 72 46.38 72 27 C69.421875 33.6 66.84375 40.2 64.1875 47 C62.97549927 50.10148438 62.97549927 50.10148438 61.73901367 53.265625 C61.09028958 54.92706676 60.44160533 56.58852407 59.79296875 58.25 C59.4628479 59.09433594 59.13272705 59.93867187 58.79260254 60.80859375 C56.82196806 65.85811523 54.89201862 70.92048046 53 76 C47.72 76 42.44 76 37 76 C35.35197589 71.98005335 33.70658765 67.95905662 32.0625 63.9375 C31.61326172 62.84244141 31.16402344 61.74738281 30.70117188 60.61914062 C26.00649342 49.12527267 21.52622348 37.56701556 17 26 C17 45.14 17 64.28 17 84 C11.39 84 5.78 84 0 84 C0 56.28 0 28.56 0 0 Z " fill="#2A5540" transform="translate(459,714)"/>
<path d="M0 0 C7.08332508 4.4777848 11.47091204 11.34781557 13.375 19.4375 C14.47767885 30.93509516 13.56836069 41.50524892 6.12109375 50.6796875 C0.47397095 56.36471045 -5.42425896 58.54440292 -13.3125 58.8125 C-19.60433546 58.78939657 -23.51903625 56.92924651 -28.625 53.4375 C-29.285 53.1075 -29.945 52.7775 -30.625 52.4375 C-30.625 61.6775 -30.625 70.9175 -30.625 80.4375 C-35.575 80.4375 -40.525 80.4375 -45.625 80.4375 C-45.625 53.7075 -45.625 26.9775 -45.625 -0.5625 C-41.005 -0.5625 -36.385 -0.5625 -31.625 -0.5625 C-31.625 1.7475 -31.625 4.0575 -31.625 6.4375 C-30.965 6.4375 -30.305 6.4375 -29.625 6.4375 C-29.439375 5.86 -29.25375 5.2825 -29.0625 4.6875 C-23.53137934 -3.96990624 -8.61753641 -3.85038861 0 0 Z " fill="#28533E" transform="translate(667.625,740.5625)"/>
<path d="M0 0 C6.47479224 5.57133286 10.2065391 12.71562374 11.09375 21.1953125 C11.484926 31.87993401 10.0628311 40.1297632 2.7890625 48.49609375 C-4.62060214 55.53966824 -12.01600854 56.86049854 -21.95068359 56.79833984 C-30.84532274 56.46457129 -36.56387635 53.43845054 -42.75 47.0625 C-49.74103203 38.41904222 -50.35716295 29.08285979 -49.57568359 18.28759766 C-48.654407 11.37375009 -44.62665621 5.63797599 -39.3125 1.3125 C-26.0518051 -8.09654078 -14.1811781 -7.22437375 0 0 Z " fill="#29543F" transform="translate(669.3125,641.6875)"/>
<path d="M0 0 C5.61 0 11.22 0 17 0 C17.01458252 1.61898193 17.02916504 3.23796387 17.04418945 4.90600586 C17.10236218 10.93894021 17.17959457 16.97150873 17.26245117 23.00415039 C17.29561126 25.61020958 17.32367065 28.21633904 17.34643555 30.82250977 C17.38014489 34.5785911 17.43247112 38.33403355 17.48828125 42.08984375 C17.49467117 43.24645004 17.5010611 44.40305634 17.50764465 45.5947113 C17.64480249 53.22003819 17.98451545 60.64888788 23.28125 66.53515625 C26.58049305 68.31276565 28.76561888 68.50293892 32.5 68.4375 C33.6034375 68.43621094 34.706875 68.43492187 35.84375 68.43359375 C39.31086233 67.9572949 41.20494645 67.07151132 44 65 C47.0015968 60.60480468 48.12517997 57.73812219 48.20532227 52.44873047 C48.22526749 51.28767792 48.24521271 50.12662537 48.26576233 48.9303894 C48.28247482 47.67203278 48.29918732 46.41367615 48.31640625 45.1171875 C48.33718735 43.83264679 48.35796844 42.54810608 48.37937927 41.22463989 C48.43459049 37.80850641 48.48400388 34.39231255 48.53222656 30.97607422 C48.58244857 27.49050519 48.63813097 24.00502391 48.69335938 20.51953125 C48.8009293 13.67976195 48.9018723 6.83991122 49 0 C54.61 0 60.22 0 66 0 C66.09084803 7.63298191 66.1640287 15.26575844 66.20724869 22.8991518 C66.22800619 26.44477451 66.25610231 29.99000394 66.30175781 33.53540039 C66.35406955 37.62389616 66.37304276 41.71198745 66.390625 45.80078125 C66.41127014 47.05643387 66.43191528 48.31208649 66.45318604 49.60578918 C66.45552997 58.9188448 64.8692384 66.44297431 59.875 74.375 C52.03359413 81.53454449 43.61405894 83.21185394 33.375 83.3125 C31.93447266 83.35600586 31.93447266 83.35600586 30.46484375 83.40039062 C20.91744091 83.48459431 13.73017003 80.55604429 6.7265625 74.0546875 C-0.74961614 65.15769663 -0.14599192 53.2134979 -0.09765625 42.28515625 C-0.09553383 40.46883949 -0.09553383 40.46883949 -0.09336853 38.61582947 C-0.08779026 34.76469406 -0.0752417 30.91361771 -0.0625 27.0625 C-0.05748219 24.4446623 -0.05291978 21.82682369 -0.04882812 19.20898438 C-0.03782793 12.80596698 -0.02057822 6.40299349 0 0 Z " fill="#295440" transform="translate(459,615)"/>
<path d="M0 0 C5.8872841 4.30880938 10.39353828 9.42134571 13.125 16.25 C13.125 17.57 13.125 18.89 13.125 20.25 C7.845 20.91 2.565 21.57 -2.875 22.25 C-3.7 21.0125 -4.525 19.775 -5.375 18.5 C-8.63061362 14.21989258 -11.64451772 11.67649517 -16.875 10.25 C-23.0883019 9.48107075 -28.64758908 9.48140143 -33.875 13.25 C-40.18252602 18.98270222 -42.67593616 25.05537015 -43.19140625 33.4765625 C-43.56358143 43.57088639 -43.13405841 52.11728858 -36.4375 60.1875 C-30.56941282 64.91059456 -26.60903629 65.85528318 -19.109375 65.66015625 C-14.40702627 65.06384391 -11.23660298 63.58682458 -7.875 60.25 C-6.21672575 57.96337682 -5.08668282 55.824826 -3.875 53.25 C8.79470387 53.06548975 8.79470387 53.06548975 14.125 54.25 C12.55920265 63.01846515 8.17106072 69.31608915 1.17993164 74.83911133 C-5.98263089 79.75683129 -13.59964036 81.00060831 -22.125 80.9375 C-23.12917969 80.93169922 -24.13335938 80.92589844 -25.16796875 80.91992188 C-35.98078218 80.57897731 -44.29948684 77.39984493 -51.9375 69.4375 C-61.89293741 56.46526338 -63.31338133 42.0810371 -61.875 26.25 C-59.94270362 15.54673709 -53.58935136 6.76707543 -45 0.375 C-31.58993473 -8.30328548 -13.72587376 -8.5700781 0 0 Z " fill="#29533E" transform="translate(597.875,617.75)"/>
<path d="M0 0 C18.81 0 37.62 0 57 0 C57 16.83 57 33.66 57 51 C38.19 51 19.38 51 0 51 C0 34.17 0 17.34 0 0 Z " fill="#F6F0E4" transform="translate(267,522)"/>
<path d="M0 0 C8.1736915 8.65449688 10.125 17.3863139 10.125 29.25 C-4.065 29.25 -18.255 29.25 -32.875 29.25 C-29.90184461 38.53317295 -29.90184461 38.53317295 -26.3125 41.875 C-21.40951328 43.83619469 -17.06732909 44.42871839 -11.875 43.25 C-9.79075675 41.6043566 -9.79075675 41.6043566 -8 39.5625 C-6.1328125 37.609375 -6.1328125 37.609375 -3.875 36.25 C0.70925427 36.525267 4.80729734 37.72958946 9.125 39.25 C7.36322516 44.77073409 5.96965714 48.56691119 0.78125 51.63671875 C-8.51885581 56.40986129 -18.21943587 58.08645035 -28.578125 55.6015625 C-36.12996506 52.51217339 -43.31977098 46.63807437 -47.01953125 39.2890625 C-49.67885677 29.84177824 -49.49250105 18.4083403 -45.4375 9.4375 C-40.96187494 1.99913722 -34.56624327 -2.9880218 -26.18359375 -5.3125 C-16.61891463 -7.1250957 -8.28527481 -5.04321075 0 0 Z " fill="#28533E" transform="translate(899.875,641.75)"/>
<path d="M0 0 C0.89847656 -0.02384766 1.79695312 -0.04769531 2.72265625 -0.07226562 C9.22242165 -0.058074 13.45125814 1.45533397 18.5 5.5625 C24.5471962 11.76883294 24.7885231 18.34115119 24.6953125 26.5546875 C24.6924826 27.50062775 24.68965271 28.44656799 24.68673706 29.4211731 C24.67558932 32.42674694 24.65049465 35.43201702 24.625 38.4375 C24.61496321 40.48176651 24.60583859 42.52603772 24.59765625 44.5703125 C24.57566767 49.56782444 24.54117509 54.5651108 24.5 59.5625 C19.55 59.5625 14.6 59.5625 9.5 59.5625 C9.005 56.5925 9.005 56.5925 8.5 53.5625 C7.63375 54.34625 6.7675 55.13 5.875 55.9375 C0.2135753 60.56361787 -5.37269641 61.02191583 -12.5234375 60.87109375 C-18.59778694 60.24133836 -22.11597528 58.22332966 -26 53.5625 C-28.434702 48.53005792 -28.23288039 42.99488146 -27.5 37.5625 C-25.1727106 32.34937175 -21.65216477 29.77796058 -16.5 27.5625 C-13.11081309 26.73394763 -9.7117228 26.28747136 -6.25 25.875 C-4.47368391 25.64402786 -2.69762819 25.41104196 -0.921875 25.17578125 C-0.14424805 25.08079346 0.63337891 24.98580566 1.43457031 24.88793945 C3.69002109 24.59066871 3.69002109 24.59066871 6.5 23.5625 C7.69335931 18.70478542 7.69335931 18.70478542 6.1875 14.125 C2.17714976 11.79340102 -1.96510734 11.72214426 -6.5 12.5625 C-8.98692795 14.47081384 -9.48398734 15.51446203 -10.5 18.5625 C-15.95769811 18.67388159 -21.11509359 18.47907981 -26.5 17.5625 C-25.03231498 11.5449914 -22.04867919 6.92135927 -16.87402344 3.48168945 C-11.29252479 0.31295256 -6.33162138 -0.07721489 0 0 Z " fill="#28523E" transform="translate(585.5,738.4375)"/>
<path d="M0 0 C4.95 0 9.9 0 15 0 C15.04898438 2.26617188 15.09796875 4.53234375 15.1484375 6.8671875 C15.20265517 9.09478604 15.25988029 11.3222888 15.31738281 13.54980469 C15.35534878 15.08195677 15.3902541 16.61418821 15.421875 18.14648438 C14.83139436 32.20510655 14.83139436 32.20510655 19.41186523 44.73022461 C22.35062302 47.07987553 25.7923424 46.45454511 29.39453125 46.359375 C32.16595013 46.17642544 32.16595013 46.17642544 34.625 44.1875 C37.43340798 39.71957821 37.21452414 35.28188937 37.31640625 30.17578125 C37.33718735 29.31438034 37.35796844 28.45297943 37.37937927 27.56547546 C37.44474909 24.81456456 37.50370132 22.06355844 37.5625 19.3125 C37.60569717 17.44725579 37.64931185 15.5820212 37.69335938 13.71679688 C37.80041763 9.14462876 37.90172054 4.5723649 38 0 C43.28 0 48.56 0 54 0 C54 19.47 54 38.94 54 59 C49.05 59 44.1 59 39 59 C38.505 55.535 38.505 55.535 38 52 C37.319375 52.763125 36.63875 53.52625 35.9375 54.3125 C30.03669107 59.71111243 24.77823599 60.623943 16.94140625 60.41796875 C11.17497147 59.59856832 7.64041393 56.64041393 3.625 52.625 C-0.26415675 46.34251601 -0.27719835 40.08483422 -0.1953125 32.91015625 C-0.1924826 31.96563095 -0.18965271 31.02110565 -0.18673706 30.04795837 C-0.17560684 27.05267276 -0.1505156 24.05769414 -0.125 21.0625 C-0.11496095 19.0227908 -0.10583672 16.98307688 -0.09765625 14.94335938 C-0.07569096 9.9621226 -0.04121076 4.98111322 0 0 Z " fill="#2E5844" transform="translate(688,638)"/>
<path d="M0 0 C3.96740023 3.42065603 7.03877753 6.74844309 8 12 C6.0429132 12.67031719 4.08428887 13.33614683 2.125 14 C0.48917969 14.556875 0.48917969 14.556875 -1.1796875 15.125 C-4 16 -4 16 -6 16 C-6.928125 14.576875 -6.928125 14.576875 -7.875 13.125 C-10.26534302 9.55500952 -10.26534302 9.55500952 -14 8 C-17.35517954 7.65050213 -19.34389305 7.67194653 -22.375 9.1875 C-24.19603786 10.92217324 -24.19603786 10.92217324 -24.5625 13.5 C-24.24693745 16.15238353 -24.24693745 16.15238353 -21.98828125 17.53515625 C-17.63080934 19.67117189 -13.15076998 20.43993224 -8.4140625 21.37304688 C-2.10804305 22.71870638 2.83972445 24.78433277 7.4375 29.5 C10.02054299 35.28601629 10.26753075 41.39016589 8.15234375 47.4140625 C4.94264874 53.22415449 0.38683822 55.55086468 -5.73828125 57.57421875 C-14.73079727 59.26711037 -24.99640476 59.35604185 -32.9765625 54.5625 C-37.64655647 50.95632705 -40.55791834 47.76832663 -42 42 C-35.07 39.525 -35.07 39.525 -28 37 C-26.50260417 39.05078125 -25.00520833 41.1015625 -23.5078125 43.15234375 C-22.11987896 45.11098235 -22.11987896 45.11098235 -20 46 C-14.5842924 46.35512837 -11.48933265 46.36699949 -7 43 C-6.94250443 40.08369887 -6.94250443 40.08369887 -8 37 C-12.37593854 34.25231766 -16.89782069 33.603736 -21.9375 32.625 C-28.80555032 31.22216419 -34.42824531 29.5107442 -38.6796875 23.70703125 C-40.99163779 18.96684914 -40.62893253 14.15025858 -40 9 C-37.14858947 3.08596335 -32.95273145 -0.42074463 -26.875 -2.75 C-17.67065631 -5.50825531 -8.43366456 -4.69987499 0 0 Z " fill="#29533F" transform="translate(837,640)"/>
<path d="M0 0 C6.56469039 2.97582269 10.72459202 8.46304532 13.7578125 14.84765625 C16.98440196 23.70390179 16.57594033 34.29439832 13.41796875 43.13671875 C10.113053 50.19551995 5.44983619 55.01442443 -1.6171875 58.34765625 C-7.22616642 60.16678455 -14.43052797 60.56592842 -19.95703125 58.453125 C-21.8671875 57.34765625 -21.8671875 57.34765625 -24.6171875 55.34765625 C-23.1321875 54.85265625 -23.1321875 54.85265625 -21.6171875 54.34765625 C-22.6071875 53.68765625 -23.5971875 53.02765625 -24.6171875 52.34765625 C-24.5759375 51.27515625 -24.5346875 50.20265625 -24.4921875 49.09765625 C-24.66027161 44.05513309 -26.24648644 42.96499397 -29.6171875 39.34765625 C-30.73348957 35.99875004 -30.78484174 33.37226364 -30.8046875 29.84765625 C-30.81886719 28.70296875 -30.83304688 27.55828125 -30.84765625 26.37890625 C-30.6171875 23.34765625 -30.6171875 23.34765625 -28.6171875 20.34765625 C-28.66359375 21.26546875 -28.71 22.18328125 -28.7578125 23.12890625 C-29.14430693 33.43217064 -29.14430693 33.43217064 -24.6171875 42.34765625 C-21.36480648 45.2386616 -19.42107473 46.23281522 -15.1171875 46.84765625 C-10.10910543 46.13221595 -7.11642698 44.05368738 -3.8046875 40.28515625 C-0.49752098 34.88925298 -1.08814088 28.44638811 -1.6171875 22.34765625 C-2.81074285 18.52049508 -4.79246582 16.07812402 -7.8046875 13.41015625 C-12.31031428 11.70803058 -17.09621347 11.67017328 -21.75390625 12.921875 C-24.28518326 13.50030098 -25.45541574 12.66016053 -27.6171875 11.34765625 C-27.9296875 8.59765625 -27.9296875 8.59765625 -27.6171875 5.34765625 C-25.3671875 3.09765625 -25.3671875 3.09765625 -22.6171875 1.34765625 C-22.0603125 0.98929688 -21.5034375 0.6309375 -20.9296875 0.26171875 C-14.99020792 -2.08598095 -6.10232477 -1.52102722 0 0 Z " fill="#28523E" transform="translate(665.6171875,739.65234375)"/>
<path d="M0 0 C0 5.28 0 10.56 0 16 C-2.96223958 16.16276042 -5.92447917 16.32552083 -8.88671875 16.48828125 C-12.29063405 17.04777047 -14.2369343 17.96278343 -17 20 C-20.28875126 24.93312688 -20.15366259 29.65275848 -20.31640625 35.48828125 C-20.33718735 36.19147995 -20.35796844 36.89467865 -20.37937927 37.6191864 C-20.44440115 39.85019817 -20.50353776 42.08132069 -20.5625 44.3125 C-20.60573036 45.83139134 -20.64934605 47.35027177 -20.69335938 48.86914062 C-20.80075384 52.57931558 -20.90017767 56.28958277 -21 60 C-26.28 60 -31.56 60 -37 60 C-37 40.53 -37 21.06 -37 1 C-32.05 1 -27.1 1 -22 1 C-21.67 3.97 -21.34 6.94 -21 10 C-20.505 9.0925 -20.01 8.185 -19.5 7.25 C-14.7651335 0.23907487 -7.89177952 -0.49323622 0 0 Z " fill="#2E5743" transform="translate(790,637)"/>
<path d="M0 0 C4.7356239 2.33320927 7.01734687 6.2551891 9 11 C9.87147116 17.66675436 10.32325018 24.79169212 6.8125 30.75 C4.00659368 34.34531172 1.52995602 36.53697031 -3.0703125 37.37890625 C-7.46916986 37.7293237 -10.35442527 37.23739603 -13.875 34.5 C-18.65801644 29.75027602 -20.11235489 24.62483159 -20.4375 18 C-20.19986778 11.2739751 -17.73735633 6.98555009 -13.375 2 C-8.81713937 -0.70095444 -5.17603558 -1.04362343 0 0 Z " fill="#F3EFE3" transform="translate(655,649)"/>
<path d="M0 0 C4.23478834 1.99754167 7.12796231 4.52690831 9.30859375 8.7421875 C11.16853998 14.81591022 10.7996892 21.51207804 8.875 27.5 C6.16449825 31.11400234 3.08519673 33.95740163 -1 36 C-5.11498317 36.39567146 -7.47454089 36.26788111 -11.1875 34.375 C-15.53036584 30.70769107 -18.61318744 26.57008968 -19.23828125 20.80078125 C-19.44940824 13.72247127 -18.15489568 8.94122226 -13.71484375 3.39453125 C-9.62841256 -0.6691343 -5.39660582 -1.02700218 0 0 Z " fill="#F3EFE4" transform="translate(655,751)"/>
<path d="M0 0 C1.89492188 0.01353516 1.89492188 0.01353516 3.828125 0.02734375 C4.79234375 0.03894531 5.7565625 0.05054688 6.75 0.0625 C6.75 1.3825 6.75 2.7025 6.75 4.0625 C8.73 4.0625 10.71 4.0625 12.75 4.0625 C10.11826727 7.37338956 7.1775599 8.02383263 3.1875 9.125 C-1.49819058 10.28098899 -1.49819058 10.28098899 -5.25 13.0625 C-5.58333333 16.5625 -5.58333333 16.5625 -5.25 20.0625 C-3.45329726 22.27993605 -3.45329726 22.27993605 -1.0078125 22.29296875 C0.29542969 22.27169922 0.29542969 22.27169922 1.625 22.25 C2.48867188 22.24355469 3.35234375 22.23710938 4.2421875 22.23046875 C6.54192226 22.07643667 8.54283489 21.70411776 10.75 21.0625 C8.58312509 23.33771866 6.29379491 25.22044162 3.75 27.0625 C4.74 28.0525 5.73 29.0425 6.75 30.0625 C8.73 28.7425 10.71 27.4225 12.75 26.0625 C11.29163185 29.90728875 9.38541701 31.2447915 5.75 33.0625 C-0.69343953 35.07084479 -8.53183919 35.2350557 -14.75 32.5 C-18.59139924 30.18715754 -21.01341702 27.39826907 -22.25 23.0625 C-22.97110731 17.46640681 -23.00603869 12.75602666 -20.6875 7.5625 C-14.59588298 1.31468767 -8.50671079 -0.07876584 0 0 Z " fill="#27513C" transform="translate(580.25,764.9375)"/>
<path d="M0 0 C4.28790329 3.7031892 5.50677378 7.39444367 6.1875 12.9375 C5.53958314 18.02827533 3.42537763 20.89672562 -0.375 24.25 C-4.69809719 25.94164673 -8.67711313 26.16519485 -13.25 25.375 C-17.15646814 23.36185077 -19.59051918 20.4125761 -21.25 16.375 C-21.99055458 12.12393188 -22.19120289 8.09686616 -20.08203125 4.23828125 C-14.31718709 -2.83069218 -8.37162374 -4.18581187 0 0 Z " fill="#F3EFE4" transform="translate(206.25,697.625)"/>
<path d="M0 0 C3.58818766 2.84247629 5.71551848 5.56553831 6.6640625 10.03125 C6.94146848 15.00666046 6.18028263 17.61728056 2.91015625 21.453125 C-0.4225746 24.97450099 -2.63859282 25.82027073 -7.52734375 26.390625 C-11.96455488 26.34150458 -14.26025965 24.63228291 -17.36328125 21.5859375 C-20.47735625 17.99012714 -20.95551035 15.15816129 -20.71484375 10.515625 C-20.01959533 5.6079891 -18.38764084 3.31726547 -14.77734375 -0.046875 C-10.17852015 -2.90560318 -4.64081781 -2.73349269 0 0 Z " fill="#F3EFE3" transform="translate(399.77734375,697.046875)"/>
<path d="M0 0 C4.27068191 2.30616823 7.63837394 4.73090674 10 9 C10.83829075 13.66118562 11.11146724 18.00702427 8.75390625 22.234375 C5.82737527 25.76664681 3.65729037 27.64569462 -1.05078125 28.2734375 C-5.18440861 28.45905807 -8.09938967 28.43530097 -11.4375 25.8125 C-14.92292723 21.98703109 -15.84714472 19.68140812 -16.3125 14.5625 C-15.85037016 9.29421986 -14.36484 6.23168488 -10.4375 2.6875 C-6.67844829 0.08507959 -4.60658139 -0.44294052 0 0 Z " fill="#F4F0E5" transform="translate(299,695)"/>
<path d="M0 0 C0.33 0 0.66 0 1 0 C1.33 15.84 1.66 31.68 2 48 C19.16 48 36.32 48 54 48 C54 39.75 54 31.5 54 23 C54.290235 15.99808064 54.60855993 8.9969912 55 2 C42.13 1.505 42.13 1.505 29 1 C29 0.67 29 0.34 29 0 C38.24 0 47.48 0 57 0 C57 16.83 57 33.66 57 51 C38.19 51 19.38 51 0 51 C0 34.17 0 17.34 0 0 Z " fill="#ECEBE2" transform="translate(267,522)"/>
<path d="M0 0 C0.91120605 0.01047363 1.82241211 0.02094727 2.76123047 0.03173828 C3.74736328 0.03818359 4.73349609 0.04462891 5.74951172 0.05126953 C7.29832031 0.07640625 7.29832031 0.07640625 8.87841797 0.10205078 C9.91869141 0.11107422 10.95896484 0.12009766 12.03076172 0.12939453 C14.60520889 0.15301331 17.17920009 0.18594929 19.75341797 0.22705078 C19.75341797 0.88705078 19.75341797 1.54705078 19.75341797 2.22705078 C12.49341797 2.22705078 5.23341797 2.22705078 -2.24658203 2.22705078 C-2.24658203 29.94705078 -2.24658203 57.66705078 -2.24658203 86.22705078 C3.36341797 86.22705078 8.97341797 86.22705078 14.75341797 86.22705078 C14.42341797 66.75705078 14.09341797 47.28705078 13.75341797 27.22705078 C15.75341797 28.22705078 15.75341797 28.22705078 16.94091797 30.47705078 C17.87097732 33.62494397 17.42060972 35.06207009 16.75341797 38.22705078 C16.68048032 39.87304068 16.65535825 41.52166469 16.67163086 43.16918945 C16.67816177 44.12335251 16.68469269 45.07751556 16.69142151 46.06059265 C16.7028569 47.07845352 16.7142923 48.09631439 16.72607422 49.14501953 C16.73871184 51.30712736 16.75107343 53.46923681 16.76318359 55.63134766 C16.78808387 59.03528928 16.81615792 62.43914646 16.84936523 65.84301758 C16.87944071 69.13119061 16.89729575 72.41925346 16.91357422 75.70751953 C16.92703384 76.73145309 16.94049347 77.75538666 16.95436096 78.81034851 C16.95773972 79.75505508 16.96111847 80.69976166 16.96459961 81.6730957 C16.97578575 82.9228846 16.97578575 82.9228846 16.98719788 84.19792175 C16.75341797 86.22705078 16.75341797 86.22705078 14.75341797 88.22705078 C11.87999735 88.4256205 9.12479809 88.50534024 6.25341797 88.47705078 C5.07585937 88.48865234 5.07585937 88.48865234 3.87451172 88.50048828 C-1.99327416 88.48035866 -1.99327416 88.48035866 -4.24658203 86.22705078 C-4.44505811 83.55742592 -4.51932022 80.99153786 -4.50537109 78.32080078 C-4.50887573 77.50442139 -4.51238037 76.68804199 -4.51599121 75.84692383 C-4.52481551 73.14021375 -4.51895696 70.43376366 -4.51220703 67.72705078 C-4.51355348 65.85139923 -4.51549384 63.97574801 -4.51800537 62.10009766 C-4.52095758 58.16581912 -4.51665589 54.23163129 -4.50732422 50.29736328 C-4.49592963 45.24630514 -4.50248859 40.19545952 -4.51446915 35.14440918 C-4.52168514 31.27032867 -4.51940102 27.39629881 -4.51421356 23.5222168 C-4.51287634 21.65942357 -4.5145273 19.7966258 -4.51917267 17.93383789 C-4.52423364 15.33353436 -4.51653384 12.73357833 -4.50537109 10.13330078 C-4.50941956 9.35817139 -4.51346802 8.58304199 -4.51763916 7.78442383 C-4.45910952 0.45065984 -4.45910952 0.45065984 0 0 Z " fill="#FCFAF5" transform="translate(461.24658203125,711.77294921875)"/>
<path d="M0 0 C7.26 0 14.52 0 22 0 C22.99 1.98 23.98 3.96 25 6 C24.67 6.99 24.34 7.98 24 9 C23.01 7.02 22.02 5.04 21 3 C14.73 2.67 8.46 2.34 2 2 C2 28.4 2 54.8 2 82 C6.29 82 10.58 82 15 82 C15 63.52 15 45.04 15 26 C17 28 17 28 17.24050903 30.3664856 C17.2338472 31.85207474 17.2338472 31.85207474 17.22705078 33.36767578 C17.22689972 34.48868683 17.22674866 35.60969788 17.22659302 36.76467896 C17.21627045 37.97928802 17.20594788 39.19389709 17.1953125 40.4453125 C17.1924826 41.68546112 17.18965271 42.92560974 17.18673706 44.20333862 C17.17742174 47.50124633 17.1594489 50.79895972 17.1373291 54.09680176 C17.11687474 57.4616457 17.10773623 60.82651807 17.09765625 64.19140625 C17.07556515 70.79435706 17.04101939 77.39714074 17 84 C11.39 84 5.78 84 0 84 C0 56.28 0 28.56 0 0 Z " fill="#174631" transform="translate(459,714)"/>
<path d="M0 0 C5.0858226 1.92131076 6.76002987 5.27117416 9 10 C9 11.32 9 12.64 9 14 C0.09 14 -8.82 14 -18 14 C-14.4829973 3.4489919 -11.319705 -1.86565508 0 0 Z " fill="#F4F1E7" transform="translate(885,648)"/>
<path d="M0 0 C0.66 0 1.32 0 2 0 C2.43012253 7.16870876 1.81489949 11.75860059 -3.0625 17.375 C-7.22292399 19.67651115 -11.33542687 19.87757223 -16 19 C-17.7734375 17.6875 -17.7734375 17.6875 -19 16 C-19.5 12.5625 -19.5 12.5625 -19 9 C-15.44102699 5.48057113 -12.02340919 4.13544712 -7.25 2.8125 C-3.32051552 1.98516108 -3.32051552 1.98516108 0 0 Z " fill="#F1EEE4" transform="translate(593,769)"/>
<path d="M0 0 C3.50436082 1.32924031 5.3834084 2.3834084 8 5 C7.80987828 7.85182576 6.99682424 9.00370506 5.125 11.1875 C1.70217954 14.10696451 -1.45707509 14.28384391 -5.8671875 14.21875 C-10.11231625 13.78335218 -13.71603679 12.43211281 -16.625 9.1875 C-17.20822905 5.78533056 -15.77243535 3.84855681 -14 1 C-9.84350816 -1.07824592 -4.53799977 -0.34360834 0 0 Z " fill="#F2EFE5" transform="translate(300,340)"/>
<path d="M0 0 C18.13809489 -0.08021762 18.13809489 -0.08021762 25.8515625 -0.09765625 C31.12113456 -0.10962602 36.39063732 -0.12380758 41.66015625 -0.15087891 C45.90709824 -0.17256112 50.15396596 -0.18455883 54.40095901 -0.18975449 C56.02373042 -0.19345858 57.64649762 -0.20069146 59.26923752 -0.21146011 C61.53684117 -0.2259138 63.80413528 -0.22798054 66.07177734 -0.22705078 C67.36417328 -0.231492 68.65656921 -0.23593323 69.98812866 -0.24050903 C73 0 73 0 75 2 C50.91 2 26.82 2 2 2 C2.33 16.85 2.66 31.7 3 47 C2.01 47 1.02 47 0 47 C0 31.49 0 15.98 0 0 Z " fill="#F9F7F1" transform="translate(303,632)"/>
<path d="M0 0 C5.61 0 11.22 0 17 0 C17.04514054 7.78847925 17.0818524 15.57688735 17.10362434 23.36546135 C17.11407249 26.98180873 17.12825032 30.59806216 17.15087891 34.21435547 C17.1725708 37.70268811 17.18456085 41.19093024 17.18975449 44.6793251 C17.19526169 46.66139971 17.21088034 48.64343779 17.22659302 50.62545776 C17.22674408 51.82655182 17.22689514 53.02764587 17.22705078 54.26513672 C17.231492 55.32658905 17.23593323 56.38804138 17.24050903 57.48165894 C17 60 17 60 15 62 C15.33 42.2 15.66 22.4 16 2 C11.38 2 6.76 2 2 2 C2.01047363 3.60439941 2.02094727 5.20879883 2.03173828 6.86181641 C2.06797424 12.82175459 2.09091372 18.78168306 2.10986328 24.74169922 C2.11991262 27.31984088 2.13355426 29.89797118 2.15087891 32.47607422 C2.17517367 36.18459889 2.18649396 39.89297268 2.1953125 43.6015625 C2.20563507 44.75177887 2.21595764 45.90199524 2.22659302 47.08706665 C2.22734102 52.43814038 2.21379019 57.01322695 0 62 C-1.01459144 58.66540658 -1.08973373 55.69750158 -1.02172852 52.22167969 C-1.00163223 51.0607782 -0.98153595 49.89987671 -0.96083069 48.70379639 C-0.93379562 47.45576233 -0.90676056 46.20772827 -0.87890625 44.921875 C-0.85529526 43.64016418 -0.83168427 42.35845337 -0.80735779 41.03790283 C-0.74466779 37.63807923 -0.67555893 34.23841546 -0.60510254 30.83874512 C-0.53428239 27.36652882 -0.46954744 23.89419963 -0.40429688 20.421875 C-0.27547914 13.61445861 -0.13931592 6.80720955 0 0 Z " fill="#0F3C26" transform="translate(508,615)"/>
<path d="M0 0 C4.95 0 9.9 0 15 0 C15 19.47 15 38.94 15 59 C10.05 59 5.1 59 0 59 C0 52 0 52 2 50 C2 52.31 2 54.62 2 57 C5.63 57 9.26 57 13 57 C13 38.52 13 20.04 13 1 C9.04 1 5.08 1 1 1 C1 11.89 1 22.78 1 34 C0.67 34 0.34 34 0 34 C0 22.78 0 11.56 0 0 Z " fill="#284A36" transform="translate(727,638)"/>
<path d="M0 0 C9.57 0 19.14 0 29 0 C25.08780231 1.95609885 23.74717824 2.24163531 19.578125 2.1953125 C18.65418945 2.19031738 17.73025391 2.18532227 16.77832031 2.18017578 C15.61397461 2.16196777 14.44962891 2.14375977 13.25 2.125 C9.5375 2.08375 5.825 2.0425 2 2 C2 9.59 2 17.18 2 25 C25.76 25 49.52 25 74 25 C74 25.33 74 25.66 74 26 C49.58 26 25.16 26 0 26 C0 17.42 0 8.84 0 0 Z " fill="#FBFAF6" transform="translate(303,589)"/>
<path d="M0 0 C4.95 0 9.9 0 15 0 C15 11.88 15 23.76 15 36 C14.67 36 14.34 36 14 36 C13.20431798 24.64732258 12.87181682 13.37981825 13 2 C9.37 2 5.74 2 2 2 C2.33 17.18 2.66 32.36 3 48 C1 47 1 47 0.38209534 45.21258545 C-0.00731529 42.95763965 -0.1202529 40.88598544 -0.11352539 38.59863281 C-0.11344986 37.7380426 -0.11337433 36.87745239 -0.11329651 35.99078369 C-0.10813522 35.07085632 -0.10297394 34.15092896 -0.09765625 33.203125 C-0.0962413 32.25435486 -0.09482635 31.30558472 -0.09336853 30.32806396 C-0.08777742 27.30201038 -0.07522652 24.27603117 -0.0625 21.25 C-0.05748385 19.19661565 -0.05292115 17.14323014 -0.04882812 15.08984375 C-0.03781089 10.05986724 -0.02055233 5.02994622 0 0 Z " fill="#123E29" transform="translate(688,638)"/>
<path d="M0 0 C2.4375 0.375 2.4375 0.375 5 1 C6.39508562 3.79017123 6.17384162 6.12889383 6.22460938 9.25048828 C6.24712769 10.56590607 6.269646 11.88132385 6.29284668 13.23660278 C6.36857151 19.26988927 6.42156796 25.30328372 6.45996094 31.33691406 C6.48219983 34.51878075 6.52390974 37.6994677 6.58300781 40.88085938 C6.65433294 44.7282875 6.69082724 48.57460936 6.70307922 52.42266464 C6.71344277 53.88430111 6.7357794 55.34590665 6.77067566 56.80716324 C7.06160213 69.6585327 7.06160213 69.6585327 2.58007812 74.77294922 C1.39642174 75.85930061 0.20414545 76.93640443 -1 78 C-1.66 78.99 -2.32 79.98 -3 81 C-3.3125 78.8125 -3.3125 78.8125 -3 76 C-0.5625 73.25 -0.5625 73.25 2 71 C3.84913943 69.15086057 3.17339215 66.1211518 3.20532227 63.64428711 C3.21522186 62.98089828 3.22512146 62.31750946 3.23532104 61.63401794 C3.26701737 59.43183005 3.29172534 57.22962055 3.31640625 55.02734375 C3.33696878 53.50419032 3.35796505 51.98104269 3.37937927 50.457901 C3.43467247 46.44168786 3.48404963 42.42542262 3.53222656 38.40911865 C3.58238882 34.31371401 3.63810236 30.21838539 3.69335938 26.12304688 C3.80102954 18.08209545 3.90245467 10.04108059 4 2 C2.68 1.34 1.36 0.68 0 0 Z " fill="#12422C" transform="translate(151,370)"/>
<path d="M0 0 C2.97 0.495 2.97 0.495 6 1 C4.68 1.33 3.36 1.66 2 2 C2 20.48 2 38.96 2 58 C3.98 58.66 5.96 59.32 8 60 C5 61 5 61 2.34797668 59.91654968 C0 58 0 58 -0.60127258 55.43733215 C-0.59016953 54.41363022 -0.57906647 53.38992828 -0.56762695 52.33520508 C-0.5672493 51.17422806 -0.56687164 50.01325104 -0.56648254 48.8170929 C-0.54067612 47.56389755 -0.51486969 46.31070221 -0.48828125 45.01953125 C-0.48120651 43.73640549 -0.47413177 42.45327972 -0.46684265 41.13127136 C-0.44776759 37.72282078 -0.39866571 34.3154386 -0.34332275 30.90740967 C-0.29213925 27.42865452 -0.26933074 23.94972641 -0.24414062 20.47070312 C-0.19054505 13.646697 -0.10522794 6.82339981 0 0 Z " fill="#113F2A" transform="translate(196,406)"/>
<path d="M0 0 C2 2 2 2 2.24723816 3.90419006 C2.24581314 4.67838791 2.24438812 5.45258575 2.24291992 6.25024414 C2.24599655 7.12777847 2.24907318 8.00531281 2.25224304 8.90943909 C2.24505753 9.85842575 2.23787201 10.80741241 2.23046875 11.78515625 C2.22978142 13.24229286 2.22978142 13.24229286 2.2290802 14.72886658 C2.22605624 16.78418193 2.21816566 18.83949495 2.20581055 20.89477539 C2.18755503 24.05297905 2.18530081 27.21088973 2.18554688 30.36914062 C2.18063182 32.36198172 2.17480355 34.35482082 2.16796875 36.34765625 C2.16685593 37.29866714 2.1657431 38.24967804 2.16459656 39.22950745 C2.15821671 40.10388962 2.15183685 40.97827179 2.14526367 41.87915039 C2.13954597 43.03925377 2.13954597 43.03925377 2.13371277 44.22279358 C2 46 2 46 1 47 C-1.69654854 47.07319621 -4.36691458 47.09242537 -7.0625 47.0625 C-8.20041992 47.05573242 -8.20041992 47.05573242 -9.36132812 47.04882812 C-11.24091871 47.0370068 -13.12046899 47.01907078 -15 47 C-15.33 46.34 -15.66 45.68 -16 45 C-10.72 45 -5.44 45 0 45 C0 30.15 0 15.3 0 0 Z " fill="#E0E4DC" transform="translate(610,753)"/>
<path d="M0 0 C2.1346875 0.0309375 2.1346875 0.0309375 4.3125 0.0625 C4.3125 5.3425 4.3125 10.6225 4.3125 16.0625 C-0.6375 16.3925 -5.5875 16.7225 -10.6875 17.0625 C-8.42187327 14.79687327 -6.84589295 14.11787251 -3.64453125 13.96484375 C-2.93683594 13.97644531 -2.22914063 13.98804688 -1.5 14 C0.3871875 14.0309375 0.3871875 14.0309375 2.3125 14.0625 C2.3125 10.1025 2.3125 6.1425 2.3125 2.0625 C-4.72671812 3.10887026 -8.64771239 4.02271239 -13.6875 9.0625 C-14.3475 9.7225 -15.0075 10.3825 -15.6875 11.0625 C-15.625 8.875 -15.625 8.875 -14.6875 6.0625 C-10.26762673 1.9607667 -6.07154937 -0.08799347 0 0 Z " fill="#133D28" transform="translate(785.6875,636.9375)"/>
<path d="M0 0 C5.52261369 0.40409368 9.04415883 2.26650119 13 6 C19.52911927 14.07780524 21.57518224 22.79584104 21 33 C20.34 33 19.68 33 19 33 C18.95101562 32.31292969 18.90203125 31.62585938 18.8515625 30.91796875 C18.77679687 30.01691406 18.70203125 29.11585938 18.625 28.1875 C18.55539062 27.29417969 18.48578125 26.40085937 18.4140625 25.48046875 C18.13354964 22.75601501 18.13354964 22.75601501 16 20 C15.59758409 18.42341163 15.22536226 16.83896688 14.875 15.25 C13.19149926 9.37492599 10.00452264 6.3395939 5 3 C2.22146084 1.56298277 2.22146084 1.56298277 0 1 C0 0.67 0 0.34 0 0 Z " fill="#2C523E" transform="translate(889,638)"/>
<path d="M0 0 C0.33 0 0.66 0 1 0 C1.01030746 0.64923935 1.02061493 1.2984787 1.03123474 1.96739197 C1.13906136 8.69899052 1.25367781 15.4304487 1.37231445 22.16186523 C1.41574006 24.67713496 1.45740929 27.19243563 1.49731445 29.70776367 C1.55483293 33.31438544 1.61857967 36.92085031 1.68359375 40.52734375 C1.70030624 41.65961899 1.71701874 42.79189423 1.73423767 43.95848083 C1.75418289 44.99948441 1.77412811 46.04048798 1.79467773 47.11303711 C1.81022202 48.03459091 1.8257663 48.95614471 1.84178162 49.90562439 C1.77022756 51.98750471 1.77022756 51.98750471 3 53 C3.3125 55.8125 3.3125 55.8125 3 59 C1 61.375 1 61.375 -1 63 C-1.33 62.34 -1.66 61.68 -2 61 C-1.34 60.01 -0.68 59.02 0 58 C0.29068127 55.35155231 0.29068127 55.35155231 0.22705078 52.33520508 C0.22689972 51.17422806 0.22674866 50.01325104 0.22659302 48.8170929 C0.21627045 47.56389755 0.20594788 46.31070221 0.1953125 45.01953125 C0.1924826 43.73640549 0.18965271 42.45327972 0.18673706 41.13127136 C0.17910797 37.72323798 0.15946587 34.31537559 0.1373291 30.90740967 C0.11685497 27.42853102 0.107732 23.94962468 0.09765625 20.47070312 C0.07621918 13.64706526 0.04209205 6.82354084 0 0 Z " fill="#EDEADC" transform="translate(505,614)"/>
<path d="M0 0 C0.66 0.33 1.32 0.66 2 1 C1.01 3.64 0.02 6.28 -1 9 C-1.33 9 -1.66 9 -2 9 C-1.85851011 10.6045556 -1.71164314 12.20863767 -1.5625 13.8125 C-1.48128906 14.70582031 -1.40007813 15.59914063 -1.31640625 16.51953125 C-1.06510233 19.12743559 -1.06510233 19.12743559 0 22 C2.98459129 23.95542188 4.26414791 24 8 24 C8.33 24.66 8.66 25.32 9 26 C9.99 26.66 10.98 27.32 12 28 C6.56455446 27.56516436 3.23832445 26.46772 -1 23 C-4.90308639 17.61355536 -4.82544668 12.4384841 -4 6 C-2.92627988 3.48535677 -1.83722716 2.06688055 0 0 Z " fill="#1E442F" transform="translate(801,643)"/>
<path d="M0 0 C0.99 0.33 1.98 0.66 3 1 C3.92092281 5.65537356 4.12205997 10.14685433 4.0625 14.875 C4.05798828 15.56335938 4.05347656 16.25171875 4.04882812 16.9609375 C4.03716336 18.64066335 4.01923271 20.32034375 4 22 C3.34 22 2.68 22 2 22 C1.731875 22.763125 1.46375 23.52625 1.1875 24.3125 C0.05575888 26.87380884 -0.91223401 28.19692938 -3 30 C-3.66 29.67 -4.32 29.34 -5 29 C-4.071875 27.88625 -4.071875 27.88625 -3.125 26.75 C0.67952516 21.82649685 1.25626583 18.87020243 1.1875 12.5625 C1.18105469 11.26441406 1.17460938 9.96632813 1.16796875 8.62890625 C1.02836295 5.61277159 0.70454736 2.92528065 0 0 Z " fill="#16402B" transform="translate(662,655)"/>
<path d="M0 0 C7.26 0 14.52 0 22 0 C22.99 1.98 23.98 3.96 25 6 C24.67 6.99 24.34 7.98 24 9 C23.01 7.02 22.02 5.04 21 3 C14.07 2.67 7.14 2.34 0 2 C0 1.34 0 0.68 0 0 Z " fill="#0F3D27" transform="translate(459,714)"/>
<path d="M0 0 C7.43706392 0.52189922 12.19101739 1.97494181 17.4375 7.625 C19.54197029 12.17065583 19.35046991 16.07395065 19 21 C18.67 21 18.34 21 18 21 C17.85304688 20.19175781 17.70609375 19.38351562 17.5546875 18.55078125 C16.30946214 11.57065787 16.30946214 11.57065787 12.375 5.9375 C8.37683116 3.64225493 4.43343798 2.21180638 0 1 C0 0.67 0 0.34 0 0 Z " fill="#163C27" transform="translate(827,662)"/>
<path d="M0 0 C2.64 0 5.28 0 8 0 C8 1.32 8 2.64 8 4 C9.98 4 11.96 4 14 4 C13 5.5625 13 5.5625 11 7 C7.30512743 7.16165067 4.06851998 6.73460749 1 4.625 C0 3 0 3 0 0 Z " fill="#1E4934" transform="translate(579,765)"/>
<path d="M0 0 C0.66 0.33 1.32 0.66 2 1 C1.67 14.2 1.34 27.4 1 41 C0.67 41 0.34 41 0 41 C-0.16721596 35.32186163 -0.32781538 29.64359025 -0.48217773 23.96508789 C-0.5356778 22.03176791 -0.59101308 20.09849784 -0.64819336 18.1652832 C-0.72988175 15.39285041 -0.80505352 12.62030742 -0.87890625 9.84765625 C-0.90594131 8.97786636 -0.93297638 8.10807648 -0.96083069 7.21192932 C-1.01278164 5.14189685 -1.01188571 3.07065016 -1 1 C-0.67 0.67 -0.34 0.34 0 0 Z " fill="#EEEADD" transform="translate(208,637)"/>
<path d="M0 0 C2.97 0.33 5.94 0.66 9 1 C9 1.66 9 2.32 9 3 C12.96 3 16.92 3 21 3 C18.35483913 5.64516087 16.99943485 5.32873984 13.3125 5.375 C7.65736777 5.30694787 4.53757548 4.30005489 0 1 C0 0.67 0 0.34 0 0 Z " fill="#1B4530" transform="translate(641,794)"/>
<path d="M0 0 C0.33 0 0.66 0 1 0 C1.33 3.96 1.66 7.92 2 12 C2.99 11.67 3.98 11.34 5 11 C5 14.63 5 18.26 5 22 C4.34 20.68 3.68 19.36 3 18 C2.34 17.34 1.68 16.68 1 16 C0.67 16 0.34 16 0 16 C0 10.72 0 5.44 0 0 Z " fill="#E0E0D4" transform="translate(792,637)"/>
<path d="M0 0 C6.12983174 0.44852427 10.36373083 2.99465314 14.3671875 7.55859375 C15.5 9.125 15.5 9.125 17 12 C16.67 12.99 16.34 13.98 16 15 C15.62488281 14.46890625 15.24976563 13.9378125 14.86328125 13.390625 C10.66725226 7.59862528 6.94243468 3.38026332 0 1 C0 0.67 0 0.34 0 0 Z " fill="#193F29" transform="translate(889,638)"/>
<path d="M0 0 C1.90845703 0.04060547 1.90845703 0.04060547 3.85546875 0.08203125 C5.31919922 0.13423828 5.31919922 0.13423828 6.8125 0.1875 C6.8125 0.8475 6.8125 1.5075 6.8125 2.1875 C3.74716836 3.72016582 0.54495728 3.29026471 -2.8125 3.25 C-3.51890625 3.24548828 -4.2253125 3.24097656 -4.953125 3.23632812 C-6.69795275 3.22453875 -8.442737 3.20660324 -10.1875 3.1875 C-7.45798749 -0.67846382 -4.44588996 -0.12236394 0 0 Z " fill="#EDEBE0" transform="translate(653.1875,697.8125)"/>
<path d="M0 0 C0.99 0.33 1.98 0.66 3 1 C3 1.66 3 2.32 3 3 C10.59 3.33 18.18 3.66 26 4 C26 4.33 26 4.66 26 5 C17.09 5 8.18 5 -1 5 C-0.67 3.35 -0.34 1.7 0 0 Z " fill="#D1D3C7" transform="translate(868,657)"/>
<path d="M0 0 C1.0828125 1.11375 1.0828125 1.11375 2.1875 2.25 C7.25089249 7.20087266 11.34484808 9.7440163 18 12 C18 12.33 18 12.66 18 13 C11.54989753 12.73124573 7.70327724 10.36586822 3 6 C0 2.41216216 0 2.41216216 0 0 Z " fill="#1A3E29" transform="translate(174,725)"/>
<path d="M0 0 C1.07072588 3.21217765 0.94578406 3.98803079 0.125 7.125 C-0.99790387 11.7455977 -1.54935337 16.26821042 -2 21 C-2.33 21 -2.66 21 -3 21 C-3.0816082 18.62429457 -3.14077222 16.25144159 -3.1875 13.875 C-3.22520508 12.87726562 -3.22520508 12.87726562 -3.26367188 11.859375 C-3.33320714 7.13097708 -2.40278375 4.04878521 0 0 Z " fill="#163F29" transform="translate(623,652)"/>
<path d="M0 0 C0 0.66 0 1.32 0 2 C-0.66 2 -1.32 2 -2 2 C-2 2.66 -2 3.32 -2 4 C-7.61 3.67 -13.22 3.34 -19 3 C-19 2.67 -19 2.34 -19 2 C-16.39610703 1.66440045 -13.7919239 1.33143142 -11.1875 1 C-10.44951172 0.90460937 -9.71152344 0.80921875 -8.95117188 0.7109375 C-5.94569605 0.33015323 -3.03285559 0 0 0 Z " fill="#E1E3D9" transform="translate(836,696)"/>
<path d="M0 0 C0.33 0 0.66 0 1 0 C1 4.95 1 9.9 1 15 C0.01 14.67 -0.98 14.34 -2 14 C-2.05437607 12.41705218 -2.09296271 10.83355744 -2.125 9.25 C-2.14820313 8.36828125 -2.17140625 7.4865625 -2.1953125 6.578125 C-1.99139502 3.8864142 -1.36551721 2.30095026 0 0 Z " fill="#315844" transform="translate(680,760)"/>
<path d="M0 0 C2.1165563 3.17483445 2.22929149 3.66699005 1.9765625 7.23046875 C1.925 8.03291016 1.8734375 8.83535156 1.8203125 9.66210938 C1.72363281 10.91217773 1.72363281 10.91217773 1.625 12.1875 C1.56828125 13.03248047 1.5115625 13.87746094 1.453125 14.74804688 C1.31179176 16.83271217 1.1571675 18.91646866 1 21 C0.67 21 0.34 21 0 21 C-0.06058594 20.16855469 -0.12117187 19.33710937 -0.18359375 18.48046875 C-0.26738281 17.39378906 -0.35117187 16.30710937 -0.4375 15.1875 C-0.51871094 14.10855469 -0.59992187 13.02960937 -0.68359375 11.91796875 C-0.90212461 8.94010095 -0.90212461 8.94010095 -2 6 C-1.0625 2.8125 -1.0625 2.8125 0 0 Z " fill="#C4CBBF" transform="translate(851,653)"/>
<path d="M0 0 C0.66 0.33 1.32 0.66 2 1 C1.01 3.64 0.02 6.28 -1 9 C-1.33 9 -1.66 9 -2 9 C-2.33 11.31 -2.66 13.62 -3 16 C-3.33 16 -3.66 16 -4 16 C-4.47617251 9.30713088 -4.39973696 5.22468764 0 0 Z " fill="#143A24" transform="translate(801,643)"/>
<path d="M0 0 C1.13643966 3.40931897 0.86747764 4.00335456 -0.4375 7.1875 C-0.72496094 7.90292969 -1.01242187 8.61835937 -1.30859375 9.35546875 C-1.53675781 9.89816406 -1.76492188 10.44085937 -2 11 C-2.66 11 -3.32 11 -4 11 C-4.33 8.69 -4.66 6.38 -5 4 C-4.67 4.66 -4.34 5.32 -4 6 C-3.34 6 -2.68 6 -2 6 C-1.855625 5.195625 -1.71125 4.39125 -1.5625 3.5625 C-1 1 -1 1 0 0 Z " fill="#F6F6F2" transform="translate(507,758)"/>
<path d="M0 0 C1.2859516 3.85785479 0.429461 5.47027478 -1.04296875 9.12109375 C-2.29234768 11.57395607 -3.503179 12.82961516 -6 14 C-6.99 13.67 -7.98 13.34 -9 13 C-8.071875 12.34 -7.14375 11.68 -6.1875 11 C-2.39944801 7.89254364 -1.40866862 4.61730269 0 0 Z " fill="#174029" transform="translate(727,672)"/>
<path d="M0 0 C1.62580966 0.11398665 3.25067157 0.24155659 4.875 0.375 C5.77992188 0.44460938 6.68484375 0.51421875 7.6171875 0.5859375 C10 1 10 1 12 3 C7.38 3 2.76 3 -2 3 C-1.34 2.01 -0.68 1.02 0 0 Z " fill="#D0D7CD" transform="translate(652,736)"/>
<path d="M0 0 C3.02079641 3.01494215 3.97405689 4.43102048 4.171875 8.76953125 C4.05335772 10.11931139 3.91219999 11.46726994 3.75 12.8125 C3.68425781 13.50537109 3.61851562 14.19824219 3.55078125 14.91210938 C3.38683876 16.61008519 3.19610037 18.30543703 3 20 C2.67 20 2.34 20 2 20 C2 15.38 2 10.76 2 6 C1.34 6 0.68 6 0 6 C0 4.02 0 2.04 0 0 Z " fill="#365E4B" transform="translate(536,644)"/>
<path d="M0 0 C0.66 0.33 1.32 0.66 2 1 C2.2954439 6.02254631 1.98514628 8.89542386 -1 13 C-2.12758089 9.61725734 -1.81750262 8.23221777 -1.0625 4.8125 C-0.86785156 3.91144531 -0.67320312 3.01039063 -0.47265625 2.08203125 C-0.23869141 1.05142578 -0.23869141 1.05142578 0 0 Z " fill="#DFE3DD" transform="translate(210,706)"/>
<path d="M0 0 C0 3 0 3 -1.390625 4.5703125 C-2.31101562 5.33988281 -2.31101562 5.33988281 -3.25 6.125 C-3.85328125 6.64320313 -4.4565625 7.16140625 -5.078125 7.6953125 C-7.07471451 9.05072083 -8.64237402 9.57228909 -11 10 C-11 9.34 -11 8.68 -11 8 C-9.1015625 6.5625 -9.1015625 6.5625 -6.625 5 C-4.15047838 3.42887516 -2.07616959 2.07616959 0 0 Z " fill="#F4F6F1" transform="translate(520,687)"/>
<path d="M0 0 C-1.62445619 0.98006859 -3.24958261 1.95902636 -4.875 2.9375 C-5.77992188 3.48277344 -6.68484375 4.02804687 -7.6171875 4.58984375 C-9.05201636 5.43898017 -10.50875448 6.25437724 -12 7 C-11.7421875 5.14453125 -11.7421875 5.14453125 -11 3 C-9.2578125 1.69921875 -9.2578125 1.69921875 -7.125 0.6875 C-6.42632812 0.34074219 -5.72765625 -0.00601562 -5.0078125 -0.36328125 C-3 -1 -3 -1 0 0 Z " fill="#F6F6F0" transform="translate(462,360)"/>
<path d="M0 0 C0.33 0 0.66 0 1 0 C1.33634376 1.93697967 1.66897165 3.87460486 2 5.8125 C2.185625 6.89144531 2.37125 7.97039063 2.5625 9.08203125 C3 12 3 12 3 15 C0.46945063 12.79952228 -0.63700653 11.35768959 -1 8 C-0.77763824 5.30580289 -0.40154954 2.6769969 0 0 Z " fill="#D1D8CE" transform="translate(557,779)"/>
<path d="M0 0 C0.99 0 1.98 0 3 0 C3.99 2.97 4.98 5.94 6 9 C3.5625 7.875 3.5625 7.875 1 6 C0.1875 2.8125 0.1875 2.8125 0 0 Z " fill="#EAEAE2" transform="translate(477,748)"/>
<path d="M0 0 C4.55015893 1.51671964 6.50057264 5.16891053 9 9 C8.34 9.66 7.68 10.32 7 11 C6.01941648 9.54261898 5.04057868 8.08406325 4.0625 6.625 C3.51722656 5.81289063 2.97195313 5.00078125 2.41015625 4.1640625 C1 2 1 2 0 0 Z " fill="#F5F6F1" transform="translate(899,641)"/>
<path d="M0 0 C0.33 0 0.66 0 1 0 C1 2.64 1 5.28 1 8 C-0.65 7.67 -2.3 7.34 -4 7 C-2.79618552 4.50638429 -1.54571278 2.31856917 0 0 Z " fill="#F4F4EF" transform="translate(594,790)"/>
<path d="M0 0 C7.75 0.75 7.75 0.75 10 3 C8.35 3.33 6.7 3.66 5 4 C5 3.67 5 3.34 5 3 C2.03 2.505 2.03 2.505 -1 2 C-0.67 1.34 -0.34 0.68 0 0 Z " fill="#DFE4DD" transform="translate(390,695)"/>
<path d="M0 0 C-6.28571429 5.57142857 -6.28571429 5.57142857 -10 6 C-8.20404732 1.26521567 -5.07984355 -1.69328118 0 0 Z " fill="#1A402B" transform="translate(558,618)"/>
<path d="M0 0 C3.93673644 1.31224548 6.22719294 2.91910327 9 6 C8.67 6.99 8.34 7.98 8 9 C7.4225 8.2575 6.845 7.515 6.25 6.75 C4.27746474 4.33912357 2.23955718 2.15957299 0 0 Z " fill="#F5F6F1" transform="translate(837,663)"/>
<path d="M0 0 C2.83374881 3.20336822 3.5205537 5.78087253 4 10 C3.34 10 2.68 10 2 10 C0.39644899 6.49223216 -0.22036864 3.85645121 0 0 Z " fill="#DEE5DD" transform="translate(490,776)"/>
<path d="M0 0 C0.66 0.66 1.32 1.32 2 2 C0.50260417 3.23697917 -0.99479167 4.47395833 -2.4921875 5.7109375 C-3.71051161 6.75250992 -4.86660097 7.86660097 -6 9 C-5.69381595 5.32579134 -5.24228216 4.21864487 -2.4375 1.6875 C-1.633125 1.130625 -0.82875 0.57375 0 0 Z " fill="#1F432E" transform="translate(776,639)"/>
<path d="M0 0 C0.99 0.33 1.98 0.66 3 1 C2.67 2.98 2.34 4.96 2 7 C1.01 7 0.02 7 -1 7 C-0.67 4.69 -0.34 2.38 0 0 Z " fill="#E4E6DB" transform="translate(680,775)"/>
<path d="M0 0 C0 0.66 0 1.32 0 2 C-3.57644848 3.2380014 -6.33694766 2.74926071 -10 2 C-6.5980513 -0.09350689 -3.94727588 -0.17942163 0 0 Z " fill="#E3E5DC" transform="translate(364,476)"/>
<path d="M0 0 C1.32 0.33 2.64 0.66 4 1 C4.33 2.98 4.66 4.96 5 7 C4.01 7.495 4.01 7.495 3 8 C2.690625 7.05125 2.38125 6.1025 2.0625 5.125 C1.12605258 2.13919592 1.12605258 2.13919592 0 0 Z " fill="#E0E4DE" transform="translate(826,676)"/>
<path d="M0 0 C1.65 0.33 3.3 0.66 5 1 C3 3 3 3 0.8359375 3.1953125 C-0.38222656 3.16050781 -0.38222656 3.16050781 -1.625 3.125 C-2.44226563 3.10695313 -3.25953125 3.08890625 -4.1015625 3.0703125 C-4.72804688 3.04710937 -5.35453125 3.02390625 -6 3 C-6 2.67 -6 2.34 -6 2 C-4.02 2 -2.04 2 0 2 C0 1.34 0 0.68 0 0 Z " fill="#ECEAE0" transform="translate(652,649)"/>
</svg>
